<svg width="86.000000" height="86.000000" viewBox="0 0 86 86" fill="none" xmlns="http://www.w3.org/2000/svg" xmlns:xlink="http://www.w3.org/1999/xlink">
	<desc>
			Created with Pixso.
	</desc>
	<defs/>
	<circle id="Oval Copy 2" cx="43.000000" cy="43.000000" r="43.000000" fill="#96A9C6" fill-opacity="1.000000"/>
	<circle id="Oval Copy 2" cx="43.000000" cy="43.000000" r="43.000000" stroke="#979797" stroke-opacity="0" stroke-width="0.000000"/>
	<path id="Path" d="M52.874 49.8741L47.7793 47.3269C47.2986 47.0864 47 46.6032 47 46.0656L47 44.2624C47.1221 44.113 47.2507 43.9429 47.3835 43.7552C48.0442 42.8218 48.574 41.783 48.959 40.6624C49.7114 40.3173 50.2 39.5734 50.2 38.7333L50.2 36.6C50.2 36.0864 50.0081 35.5888 49.6667 35.2L49.6667 32.3632C49.6965 32.0699 49.814 30.3237 48.551 28.8832C47.4556 27.6336 45.678 27 43.2666 27C40.8555 27 39.0779 27.6336 37.9824 28.8827C36.7195 30.3232 36.8369 32.0699 36.8667 32.3632L36.8667 35.2C36.5254 35.5888 36.3333 36.0864 36.3333 36.6L36.3333 38.7333C36.3333 39.3824 36.6282 39.9877 37.1318 40.3915C37.6204 42.3259 38.6426 43.7834 39 44.2512L39 46.016C39 46.5323 38.7185 47.0059 38.2656 47.2534L33.5078 49.8485C31.9604 50.6928 31 52.3109 31 54.0731L31 55.8C31 58.3312 39.0239 59 43.2666 59C47.5093 59 55.5334 58.3312 55.5334 55.8L55.5334 54.1771C55.5334 52.3434 54.5142 50.6944 52.874 49.8741Z" fill="#FFFFFF" fill-opacity="1.000000" fill-rule="nonzero"/>
</svg>
