<svg width="144.000000" height="24.000000" viewBox="0 0 144 24" fill="none" xmlns="http://www.w3.org/2000/svg" xmlns:xlink="http://www.w3.org/1999/xlink">
	<desc>
			Created with Pixso.
	</desc>
	<defs/>
	<path id="Path" d="M22.675 0L1.32495 0C0.593018 0 0 0.593018 0 1.32501L0 22.676C0 23.407 0.593018 24 1.32495 24L12.8201 24L12.8201 14.706L9.69189 14.706L9.69189 11.084L12.8201 11.084L12.8201 8.41302C12.8201 5.31299 14.7129 3.625 17.479 3.625C18.804 3.625 19.9419 3.724 20.2739 3.76801L20.2739 7.008L18.356 7.00897C16.8521 7.00897 16.561 7.724 16.561 8.77197L16.561 11.085L20.1479 11.085L19.6809 14.707L16.561 14.707L16.561 24L22.677 24C23.407 24 24 23.407 24 22.675L24 1.32501C24 0.593018 23.407 0 22.675 0Z" fill="#837D88" fill-opacity="1.000000" fill-rule="nonzero"/>
	<path id="Shape" d="M132 0C128.741 0 128.333 0.0139771 127.053 0.0720215C122.695 0.271973 120.273 2.69 120.073 7.052C120.014 8.33301 120 8.74103 120 12C120 15.259 120.014 15.668 120.072 16.948C120.272 21.306 122.69 23.728 127.052 23.928C128.333 23.986 128.741 24 132 24C135.259 24 135.668 23.986 136.948 23.928C141.302 23.728 143.73 21.31 143.927 16.948C143.986 15.668 144 15.259 144 12C144 8.74103 143.986 8.33301 143.928 7.05298C143.732 2.69897 141.311 0.27301 136.949 0.072998C135.668 0.0139771 135.259 0 132 0ZM136.85 2.23297C135.584 2.17499 135.204 2.16302 132 2.16302C128.796 2.16302 128.417 2.17499 127.151 2.23199C123.896 2.38 122.381 3.92401 122.232 7.151C122.175 8.41699 122.162 8.79602 122.162 12C122.162 15.205 122.174 15.584 122.232 16.849C122.38 20.07 123.891 21.62 127.151 21.769C128.416 21.827 128.796 21.839 132 21.839C135.206 21.839 135.584 21.827 136.85 21.769C140.105 21.621 141.62 20.075 141.769 16.85C141.826 15.585 141.838 15.206 141.838 12.001C141.838 8.797 141.827 8.41699 141.769 7.15198C141.621 3.92401 140.102 2.38098 136.85 2.23297ZM136.965 5.59497C136.965 4.79999 137.61 4.15503 138.406 4.15503C139.201 4.15503 139.845 4.79999 139.845 5.59497C139.845 6.39001 139.201 7.03497 138.406 7.03497C137.61 7.03497 136.965 6.39001 136.965 5.59497ZM125.838 12C125.838 8.59698 128.597 5.83801 132 5.83801C135.403 5.83801 138.162 8.59698 138.162 12C138.162 15.404 135.403 18.163 132 18.163C128.597 18.163 125.838 15.403 125.838 12ZM132 16C129.791 16 128 14.21 128 12C128 9.79102 129.791 8 132 8C134.209 8 136 9.79102 136 12C136 14.21 134.209 16 132 16Z" clip-rule="evenodd" fill="#837D88" fill-opacity="1.000000" fill-rule="evenodd"/>
	<path id="Path" d="M92 0C85.373 0 80 5.37201 80 12C80 17.084 83.1631 21.426 87.627 23.174C87.522 22.225 87.427 20.769 87.6689 19.733C87.887 18.796 89.0759 13.768 89.0759 13.768C89.0759 13.768 88.717 13.049 88.717 11.986C88.717 10.318 89.6841 9.07202 90.8879 9.07202C91.9109 9.07202 92.406 9.841 92.406 10.762C92.406 11.791 91.751 13.33 91.4121 14.757C91.1289 15.951 92.011 16.926 93.189 16.926C95.322 16.926 96.9609 14.677 96.9609 11.431C96.9609 8.55798 94.897 6.54901 91.949 6.54901C88.5349 6.54901 86.531 9.10999 86.531 11.756C86.531 12.787 86.928 13.894 87.4241 14.494C87.522 14.613 87.5359 14.718 87.5071 14.839L87.1741 16.199C87.1211 16.419 87 16.466 86.772 16.36C85.2729 15.662 84.3359 13.471 84.3359 11.711C84.3359 7.92603 87.0859 4.44897 92.2649 4.44897C96.428 4.44897 99.6631 7.41602 99.6631 11.38C99.6631 15.516 97.0559 18.844 93.436 18.844C92.22 18.844 91.0769 18.213 90.686 17.466L89.938 20.319C89.667 21.362 88.936 22.669 88.446 23.465C89.5701 23.812 90.7629 24 92 24C98.627 24 104 18.627 104 12C104 5.37201 98.627 0 92 0Z" fill="#837D88" fill-opacity="1.000000" fill-rule="nonzero"/>
	<path id="Path" d="M64 4.55707C63.1169 4.94904 62.168 5.21307 61.1721 5.33203C62.189 4.72302 62.97 3.75806 63.3369 2.60803C62.386 3.17206 61.332 3.58203 60.21 3.80304C59.313 2.84607 58.032 2.24805 56.616 2.24805C53.437 2.24805 51.1011 5.21405 51.8191 8.29303C47.728 8.08807 44.1001 6.12805 41.6709 3.14905C40.3811 5.36206 41.002 8.25702 43.1941 9.72302C42.3879 9.69702 41.6279 9.47607 40.9651 9.10706C40.9109 11.3881 42.5459 13.522 44.9141 13.9971C44.2209 14.1851 43.4619 14.2291 42.6899 14.0811C43.3159 16.037 45.134 17.46 47.29 17.5001C45.22 19.123 42.6121 19.848 40 19.54C42.179 20.9371 44.7681 21.7521 47.5481 21.7521C56.6899 21.7521 61.855 14.0311 61.543 7.10602C62.5049 6.41107 63.3401 5.54407 64 4.55707Z" fill="#837D88" fill-opacity="1.000000" fill-rule="nonzero"/>
</svg>
