<svg width="86.000000" height="86.000000" viewBox="0 0 86 86" fill="none" xmlns="http://www.w3.org/2000/svg" xmlns:xlink="http://www.w3.org/1999/xlink">
	<desc>
			Created with Pixso.
	</desc>
	<defs/>
	<circle id="Oval Copy" cx="43.000000" cy="43.000000" r="43.000000" fill="#96A9C6" fill-opacity="1.000000"/>
	<circle id="Oval Copy" cx="43.000000" cy="43.000000" r="43.000000" stroke="#979797" stroke-opacity="0" stroke-width="0.000000"/>
	<path id="Shape" d="M27 43C27 34.1641 34.1641 27 43 27C51.8379 27 59 34.1641 59 43C59 51.8359 51.8379 59 43 59C34.1641 59 27 51.8359 27 43ZM43.9531 50.7364C45.4395 50.5801 46.5762 50.0605 47.3633 49.1777C48.1504 48.2969 48.5449 47.1953 48.5449 45.8732C48.5449 45.0119 48.3535 44.2599 47.9727 43.6153C47.5898 42.9728 47.0801 42.4669 46.4395 42.1016C45.8008 41.7364 44.918 41.3478 43.793 40.9376C42.7695 40.5606 42.0996 40.2462 41.7891 39.9922C41.4766 39.7364 41.3203 39.3712 41.3203 38.8946C41.3203 38.4277 41.4824 38.0293 41.8066 37.7012C42.1289 37.373 42.5586 37.209 43.0938 37.209C44.1602 37.209 44.9453 37.9434 45.4551 39.4121L48.0645 38.3418C47.4414 36.1993 46.0703 35.002 43.9531 34.748L43.9531 33L42.0586 33L42.0586 34.748C40.6562 34.9453 39.6289 35.4863 38.9766 36.371C38.3242 37.2578 37.9961 38.2558 37.9961 39.3632C37.9961 40.207 38.1797 40.9492 38.5449 41.5859C38.9102 42.2208 39.3867 42.7149 39.9727 43.0664C40.5586 43.4218 41.373 43.7773 42.4141 44.1386C43.5723 44.5488 44.3203 44.8867 44.6562 45.1542C44.9922 45.4199 45.1602 45.8125 45.1602 46.3301C45.1602 46.8301 44.9922 47.2558 44.6562 47.6094C44.3203 47.963 43.793 48.1387 43.0801 48.1387C41.5547 48.1387 40.6562 47.3145 40.3848 45.6641L37.4551 46.4277C38.0469 49.0527 39.5801 50.4942 42.0586 50.748L42.0586 53L43.9531 53L43.9531 50.7364Z" clip-rule="evenodd" fill="#FFFFFF" fill-opacity="1.000000" fill-rule="evenodd"/>
</svg>
